<svg xmlns="http://www.w3.org/2000/svg" width="256" height="256" viewBox="0 0 100 100"><rect width="100" height="100" rx="20" fill="#000000"></rect><path fill="#fff" d="M28.45 80.78L28.45 21.11L21.61 19.94L21.61 15.08L38.34 13.10L38.61 13.10L40.95 14.81L41.05 34.88L40.41 42.71Q43.20 40.19 48.02 38.03Q52.84 35.87 58.14 35.87L58.14 35.87Q63.81 35.87 66.97 37.99Q70.11 40.10 71.38 44.42Q72.63 48.74 72.63 55.94L72.63 55.94L72.63 80.69L78.39 81.50L78.39 86.90L54.73 86.90L54.73 81.50L59.95 80.69L59.95 55.94Q59.95 51.26 59.31 48.65Q58.68 46.04 57.02 44.78Q55.35 43.52 52.11 43.52L52.11 43.52Q49.33 43.52 46.40 44.83Q43.47 46.13 41.22 47.93L41.22 47.93L41.22 80.69L46.72 81.50L46.72 86.90L23.40 86.90L23.40 81.50L28.45 80.78Z"></path></svg>